<mxfile host="65bd71144e">
    <diagram id="2TzNcN5HdAtMGeh-jS9I" name="Page-1">
        <mxGraphModel dx="1721" dy="776" grid="1" gridSize="10" guides="1" tooltips="1" connect="1" arrows="1" fold="1" page="1" pageScale="1" pageWidth="850" pageHeight="1100" math="0" shadow="0">
            <root>
                <mxCell id="0"/>
                <mxCell id="1" parent="0"/>
                <mxCell id="2" value="Start" style="rounded=1;whiteSpace=wrap;html=1;" vertex="1" parent="1">
                    <mxGeometry x="10" y="20" width="60" height="30" as="geometry"/>
                </mxCell>
                <mxCell id="4" value="" style="endArrow=classic;html=1;" edge="1" parent="1" source="2" target="6">
                    <mxGeometry width="50" height="50" relative="1" as="geometry">
                        <mxPoint x="20" y="150" as="sourcePoint"/>
                        <mxPoint x="38" y="90" as="targetPoint"/>
                    </mxGeometry>
                </mxCell>
                <mxCell id="6" value="Initialize&lt;div&gt;modules&lt;/div&gt;" style="rounded=0;whiteSpace=wrap;html=1;" vertex="1" parent="1">
                    <mxGeometry x="10" y="90" width="60" height="40" as="geometry"/>
                </mxCell>
                <mxCell id="8" value="Button pressed" style="shape=parallelogram;perimeter=parallelogramPerimeter;whiteSpace=wrap;html=1;fixedSize=1;" vertex="1" parent="1">
                    <mxGeometry x="-16.25" y="170" width="112.5" height="30" as="geometry"/>
                </mxCell>
                <mxCell id="9" value="" style="endArrow=classic;html=1;entryX=0.5;entryY=0.121;entryDx=0;entryDy=0;entryPerimeter=0;" edge="1" parent="1" source="6" target="8">
                    <mxGeometry width="50" height="50" relative="1" as="geometry">
                        <mxPoint x="39.71" y="130" as="sourcePoint"/>
                        <mxPoint x="39.71" y="168" as="targetPoint"/>
                    </mxGeometry>
                </mxCell>
                <mxCell id="10" value="" style="endArrow=classic;html=1;exitX=0.46;exitY=1.057;exitDx=0;exitDy=0;exitPerimeter=0;" edge="1" parent="1" target="11">
                    <mxGeometry width="50" height="50" relative="1" as="geometry">
                        <mxPoint x="39.71" y="200" as="sourcePoint"/>
                        <mxPoint x="39.71" y="238" as="targetPoint"/>
                    </mxGeometry>
                </mxCell>
                <mxCell id="11" value="Decision" style="rhombus;whiteSpace=wrap;html=1;" vertex="1" parent="1">
                    <mxGeometry y="240" width="80" height="80" as="geometry"/>
                </mxCell>
                <mxCell id="12" value="" style="endArrow=classic;html=1;" edge="1" parent="1" source="11" target="18">
                    <mxGeometry width="50" height="50" relative="1" as="geometry">
                        <mxPoint x="80" y="282" as="sourcePoint"/>
                        <mxPoint x="120" y="282" as="targetPoint"/>
                    </mxGeometry>
                </mxCell>
                <mxCell id="13" value="" style="endArrow=classic;html=1;" edge="1" parent="1" source="11" target="17">
                    <mxGeometry width="50" height="50" relative="1" as="geometry">
                        <mxPoint x="-0.9999999999999929" y="282" as="sourcePoint"/>
                        <mxPoint x="-40" y="282" as="targetPoint"/>
                    </mxGeometry>
                </mxCell>
                <mxCell id="14" value="" style="endArrow=classic;html=1;entryX=0.5;entryY=0;entryDx=0;entryDy=0;" edge="1" parent="1" source="11" target="19">
                    <mxGeometry width="50" height="50" relative="1" as="geometry">
                        <mxPoint x="39.71000000000001" y="320" as="sourcePoint"/>
                        <mxPoint x="39.71000000000001" y="358" as="targetPoint"/>
                    </mxGeometry>
                </mxCell>
                <mxCell id="16" value="press(Args)" style="rounded=1;whiteSpace=wrap;html=1;" vertex="1" parent="1">
                    <mxGeometry x="103.75" y="20" width="106.25" height="40" as="geometry"/>
                </mxCell>
                <mxCell id="17" value="Args &quot;add&quot; in function pressed" style="whiteSpace=wrap;html=1;aspect=fixed;" vertex="1" parent="1">
                    <mxGeometry x="-100" y="250" width="60" height="60" as="geometry"/>
                </mxCell>
                <mxCell id="18" value="Args &quot;remove&quot; in function pressed" style="whiteSpace=wrap;html=1;aspect=fixed;" vertex="1" parent="1">
                    <mxGeometry x="119.38" y="250" width="60" height="60" as="geometry"/>
                </mxCell>
                <mxCell id="19" value="Args &quot;checkout&quot; in function pressed" style="whiteSpace=wrap;html=1;aspect=fixed;" vertex="1" parent="1">
                    <mxGeometry x="10" y="360" width="60" height="60" as="geometry"/>
                </mxCell>
                <mxCell id="20" value="" style="endArrow=classic;html=1;" edge="1" parent="1" source="16" target="22">
                    <mxGeometry width="50" height="50" relative="1" as="geometry">
                        <mxPoint x="220" y="40" as="sourcePoint"/>
                        <mxPoint x="240" y="78" as="targetPoint"/>
                        <Array as="points">
                            <mxPoint x="240" y="40"/>
                            <mxPoint x="305" y="40"/>
                        </Array>
                    </mxGeometry>
                </mxCell>
                <mxCell id="22" value="Decision" style="rhombus;whiteSpace=wrap;html=1;" vertex="1" parent="1">
                    <mxGeometry x="276.25" y="79" width="56.87" height="60" as="geometry"/>
                </mxCell>
                <mxCell id="23" value="remove button pressed" style="text;html=1;align=center;verticalAlign=middle;resizable=0;points=[];autosize=1;strokeColor=none;fillColor=none;perimeterSpacing=2;fontSize=8;" vertex="1" parent="1">
                    <mxGeometry x="89.38" y="220" width="110" height="20" as="geometry"/>
                </mxCell>
                <mxCell id="24" value="add button pressed" style="text;html=1;align=center;verticalAlign=middle;resizable=0;points=[];autosize=1;strokeColor=none;fillColor=none;perimeterSpacing=2;fontSize=8;" vertex="1" parent="1">
                    <mxGeometry x="-110" y="220" width="90" height="20" as="geometry"/>
                </mxCell>
                <mxCell id="25" value="checkout button pressed" style="text;html=1;align=center;verticalAlign=middle;resizable=0;points=[];autosize=1;strokeColor=none;fillColor=none;perimeterSpacing=2;fontSize=8;" vertex="1" parent="1">
                    <mxGeometry x="-16.25" y="430" width="110" height="20" as="geometry"/>
                </mxCell>
                <mxCell id="30" value="" style="endArrow=classic;html=1;" edge="1" parent="1" source="33" target="34">
                    <mxGeometry width="50" height="50" relative="1" as="geometry">
                        <mxPoint x="156.91479659238814" y="130.0009793483962" as="sourcePoint"/>
                        <mxPoint x="150" y="160" as="targetPoint"/>
                        <Array as="points"/>
                    </mxGeometry>
                </mxCell>
                <mxCell id="31" value="" style="endArrow=classic;html=1;" edge="1" parent="1" source="22" target="33">
                    <mxGeometry width="50" height="50" relative="1" as="geometry">
                        <mxPoint x="250" y="110" as="sourcePoint"/>
                        <mxPoint x="210" y="190.17" as="targetPoint"/>
                        <Array as="points"/>
                    </mxGeometry>
                </mxCell>
                <mxCell id="32" value="" style="endArrow=classic;html=1;entryX=0.5;entryY=0;entryDx=0;entryDy=0;" edge="1" parent="1" source="22" target="36">
                    <mxGeometry width="50" height="50" relative="1" as="geometry">
                        <mxPoint x="304.6147965923882" y="168.83097934839623" as="sourcePoint"/>
                        <mxPoint x="304.34000000000003" y="220" as="targetPoint"/>
                        <Array as="points">
                            <mxPoint x="305" y="199"/>
                        </Array>
                    </mxGeometry>
                </mxCell>
                <mxCell id="33" value="cart.append(get.entry)" style="rounded=0;whiteSpace=wrap;html=1;" vertex="1" parent="1">
                    <mxGeometry x="120" y="89" width="134.06" height="31" as="geometry"/>
                </mxCell>
                <mxCell id="34" value="total += flat(dictionary[get.entry])&lt;div&gt;cart.configtext(&quot;+&quot;.join(cart)\n total = {total})&lt;/div&gt;" style="rounded=0;whiteSpace=wrap;html=1;fontSize=9;" vertex="1" parent="1">
                    <mxGeometry x="98.9" y="139" width="176.25" height="40" as="geometry"/>
                </mxCell>
                <mxCell id="36" value="Decision" style="rhombus;whiteSpace=wrap;html=1;" vertex="1" parent="1">
                    <mxGeometry x="199.38" y="200" width="56.87" height="60" as="geometry"/>
                </mxCell>
                <mxCell id="39" value="TRUE" style="text;html=1;align=center;verticalAlign=middle;resizable=0;points=[];autosize=1;strokeColor=none;fillColor=none;" vertex="1" parent="1">
                    <mxGeometry x="300" y="130" width="60" height="30" as="geometry"/>
                </mxCell>
                <mxCell id="41" value="FALSE" style="text;html=1;align=center;verticalAlign=middle;resizable=0;points=[];autosize=1;strokeColor=none;fillColor=none;" vertex="1" parent="1">
                    <mxGeometry x="325" y="70" width="60" height="30" as="geometry"/>
                </mxCell>
                <mxCell id="42" value="message.showinf(total amount: ${total.2 decimal})&lt;div&gt;cart.clear()&lt;/div&gt;&lt;div&gt;total = 0&lt;/div&gt;&lt;div&gt;cart.configtext(Cart: )&lt;/div&gt;" style="rounded=0;whiteSpace=wrap;html=1;fontSize=9;" vertex="1" parent="1">
                    <mxGeometry x="100" y="346" width="213.44" height="50" as="geometry"/>
                </mxCell>
                <mxCell id="43" value="" style="endArrow=classic;html=1;entryX=0.467;entryY=0.012;entryDx=0;entryDy=0;entryPerimeter=0;" edge="1" parent="1" source="36" target="42">
                    <mxGeometry width="50" height="50" relative="1" as="geometry">
                        <mxPoint x="228.24707814748956" y="260.0000177800356" as="sourcePoint"/>
                        <mxPoint x="201.3123999999999" y="353.76" as="targetPoint"/>
                        <Array as="points">
                            <mxPoint x="229.38" y="291.11"/>
                            <mxPoint x="229.38" y="321.11"/>
                            <mxPoint x="199.38" y="321.11"/>
                            <mxPoint x="199.38" y="331.11"/>
                        </Array>
                    </mxGeometry>
                </mxCell>
                <mxCell id="44" value="Arg is checkout" style="text;html=1;align=center;verticalAlign=middle;resizable=0;points=[];autosize=1;strokeColor=none;fillColor=none;perimeterSpacing=2;fontSize=8;" vertex="1" parent="1">
                    <mxGeometry x="220" y="280" width="80" height="20" as="geometry"/>
                </mxCell>
                <mxCell id="45" value="Arg is add" style="text;html=1;align=center;verticalAlign=middle;resizable=0;points=[];autosize=1;strokeColor=none;fillColor=none;perimeterSpacing=2;fontSize=8;" vertex="1" parent="1">
                    <mxGeometry x="230" y="69" width="60" height="20" as="geometry"/>
                </mxCell>
                <mxCell id="46" value="Arg is remove" style="text;html=1;align=center;verticalAlign=middle;resizable=0;points=[];autosize=1;strokeColor=none;fillColor=none;perimeterSpacing=2;fontSize=8;" vertex="1" parent="1">
                    <mxGeometry x="263" y="230" width="70" height="20" as="geometry"/>
                </mxCell>
                <mxCell id="48" value="" style="endArrow=classic;html=1;exitX=1;exitY=0.5;exitDx=0;exitDy=0;entryX=0.065;entryY=0.478;entryDx=0;entryDy=0;entryPerimeter=0;" edge="1" parent="1" source="36" target="50">
                    <mxGeometry width="50" height="50" relative="1" as="geometry">
                        <mxPoint x="315" y="290" as="sourcePoint"/>
                        <mxPoint x="350" y="230" as="targetPoint"/>
                        <Array as="points"/>
                    </mxGeometry>
                </mxCell>
                <mxCell id="50" value="Try" style="rhombus;whiteSpace=wrap;html=1;" vertex="1" parent="1">
                    <mxGeometry x="333.13" y="200" width="56.87" height="60" as="geometry"/>
                </mxCell>
                <mxCell id="51" value="cart.remove(entry.get)&lt;div&gt;total -= float(dictionary[entry.get])&lt;/div&gt;&lt;div&gt;cart.config(Cart: {&#39;+&#39;.join(cart) total : {total:2 decimal})&lt;/div&gt;" style="whiteSpace=wrap;html=1;fontSize=9;" vertex="1" parent="1">
                    <mxGeometry x="263" y="300" width="240" height="40" as="geometry"/>
                </mxCell>
                <mxCell id="52" value="" style="endArrow=classic;html=1;" edge="1" parent="1" source="50" target="51">
                    <mxGeometry width="50" height="50" relative="1" as="geometry">
                        <mxPoint x="425" y="360" as="sourcePoint"/>
                        <mxPoint x="425.34000000000003" y="410" as="targetPoint"/>
                        <Array as="points">
                            <mxPoint x="360" y="280"/>
                            <mxPoint x="380" y="280"/>
                        </Array>
                    </mxGeometry>
                </mxCell>
                <mxCell id="53" value="" style="endArrow=classic;html=1;exitX=1;exitY=0.5;exitDx=0;exitDy=0;" edge="1" parent="1" source="50" target="57">
                    <mxGeometry width="50" height="50" relative="1" as="geometry">
                        <mxPoint x="459.99" y="250" as="sourcePoint"/>
                        <mxPoint x="520" y="230" as="targetPoint"/>
                        <Array as="points">
                            <mxPoint x="480" y="230"/>
                            <mxPoint x="490" y="230"/>
                        </Array>
                    </mxGeometry>
                </mxCell>
                <mxCell id="55" value="Except" style="text;html=1;align=center;verticalAlign=middle;resizable=0;points=[];autosize=1;strokeColor=none;fillColor=none;perimeterSpacing=2;fontSize=8;" vertex="1" parent="1">
                    <mxGeometry x="390" y="210" width="50" height="20" as="geometry"/>
                </mxCell>
                <mxCell id="56" value="No error" style="text;html=1;align=center;verticalAlign=middle;resizable=0;points=[];autosize=1;strokeColor=none;fillColor=none;perimeterSpacing=2;fontSize=8;" vertex="1" parent="1">
                    <mxGeometry x="364.99" y="260" width="50" height="20" as="geometry"/>
                </mxCell>
                <mxCell id="57" value="messagebox.showwarning(entry.get, is not in the cart}" style="whiteSpace=wrap;html=1;fontSize=9;" vertex="1" parent="1">
                    <mxGeometry x="370" y="150" width="240" height="30" as="geometry"/>
                </mxCell>
                <mxCell id="58" value="messagebox.showwarning(Nothing in cart)" style="whiteSpace=wrap;html=1;fontSize=9;" vertex="1" parent="1">
                    <mxGeometry x="364.99" y="95" width="175.01" height="30" as="geometry"/>
                </mxCell>
                <mxCell id="59" value="" style="endArrow=classic;html=1;exitX=1;exitY=0.5;exitDx=0;exitDy=0;entryX=0;entryY=0.5;entryDx=0;entryDy=0;" edge="1" parent="1" source="22" target="58">
                    <mxGeometry width="50" height="50" relative="1" as="geometry">
                        <mxPoint x="380" y="144.57999999999998" as="sourcePoint"/>
                        <mxPoint x="450" y="144.57999999999998" as="targetPoint"/>
                        <Array as="points"/>
                    </mxGeometry>
                </mxCell>
                <mxCell id="60" value="Cart has items" style="text;html=1;align=center;verticalAlign=middle;resizable=0;points=[];autosize=1;strokeColor=none;fillColor=none;perimeterSpacing=2;fontSize=8;" vertex="1" parent="1">
                    <mxGeometry x="290" y="160" width="80" height="20" as="geometry"/>
                </mxCell>
            </root>
        </mxGraphModel>
    </diagram>
</mxfile>